<svg xmlns="http://www.w3.org/2000/svg" width="14" height="10.897" viewBox="0 0 14 10.897">
  <g id="Group_161963" data-name="Group 161963" transform="translate(-1284.898 -250.497)">
    <path id="Union_83" data-name="Union 83" d="M19467.326,1437.454a2.865,2.865,0,0,1,0-3.012,7.45,7.45,0,0,1,13.145,0,2.865,2.865,0,0,1,0,3.012,7.45,7.45,0,0,1-13.145,0Zm.992-2.4a1.718,1.718,0,0,0,0,1.791,6.289,6.289,0,0,0,11.16,0,1.718,1.718,0,0,0,0-1.791,6.289,6.289,0,0,0-11.16,0Zm2.664.9a2.915,2.915,0,1,1,2.916,2.915A2.914,2.914,0,0,1,19470.982,1435.948Zm1.168,0a1.748,1.748,0,1,0,1.748-1.749A1.747,1.747,0,0,0,19472.15,1435.948Z" transform="translate(-18182 -1180.003)" fill="#00abbc"/>
  </g>
</svg>